<?xml version="1.0" encoding="UTF-8" standalone="no"?>
<!-- Created with Inkscape (http://www.inkscape.org/) -->

<svg
   version="1.1"
   id="svg5426"
   width="100"
   height="100"
   viewBox="0 0 100 100"
   sodipodi:docname="logo.svg"
   inkscape:version="1.1 (c68e22c387, 2021-05-23)"
   inkscape:export-filename="C:\Users\tutko\OneDrive\Dokumenty\webovska grafika\projekt\praca2.png"
   inkscape:export-xdpi="96"
   inkscape:export-ydpi="96"
   xmlns:inkscape="http://www.inkscape.org/namespaces/inkscape"
   xmlns:sodipodi="http://sodipodi.sourceforge.net/DTD/sodipodi-0.dtd"
   xmlns="http://www.w3.org/2000/svg"
   xmlns:svg="http://www.w3.org/2000/svg">
  <defs
     id="defs5430">
    <inkscape:path-effect
       effect="spiro"
       id="path-effect4297"
       is_visible="true"
       lpeversion="1" />
  </defs>
  <sodipodi:namedview
     id="namedview5428"
     pagecolor="#ffffff"
     bordercolor="#666666"
     borderopacity="1.0"
     inkscape:pageshadow="2"
     inkscape:pageopacity="1"
     inkscape:pagecheckerboard="0"
     showgrid="false"
     inkscape:zoom="1.4142136"
     inkscape:cx="75.660426"
     inkscape:cy="30.759145"
     inkscape:window-width="1920"
     inkscape:window-height="1001"
     inkscape:window-x="-9"
     inkscape:window-y="-9"
     inkscape:window-maximized="1"
     inkscape:current-layer="g5432"
     showguides="false"
     inkscape:snap-global="true"
     inkscape:snap-bbox="true"
     inkscape:guide-bbox="true"
     width="100px">
    <inkscape:grid
       type="xygrid"
       id="grid115"
       empspacing="20"
       empcolor="#ad1e50"
       empopacity="0.16862745"
       dotted="false"
       spacingx="2"
       spacingy="2" />
    <sodipodi:guide
       position="1024,1132"
       orientation="0,-1"
       id="guide3015" />
    <sodipodi:guide
       position="1042,714"
       orientation="1,0"
       id="guide3017" />
    <sodipodi:guide
       position="1097,1019"
       orientation="1,0"
       id="guide3021" />
    <sodipodi:guide
       position="1097,1019"
       orientation="0,-1"
       id="guide3156" />
    <sodipodi:guide
       position="1059,965"
       orientation="0,-1"
       id="guide3576" />
    <sodipodi:guide
       position="1063,885"
       orientation="0,-1"
       id="guide3578" />
    <sodipodi:guide
       position="1064,830"
       orientation="0,-1"
       id="guide3618" />
    <sodipodi:guide
       position="1076,712"
       orientation="0,-1"
       id="guide3867" />
    <sodipodi:guide
       position="914,1036"
       orientation="1,0"
       id="guide17152" />
    <sodipodi:guide
       position="968,1024"
       orientation="1,0"
       id="guide17458" />
    <sodipodi:guide
       position="1064,1066"
       orientation="0,-1"
       id="guide17840" />
    <sodipodi:guide
       position="1166,1024"
       orientation="1,0"
       id="guide17880" />
    <sodipodi:guide
       position="1224,1036"
       orientation="1,0"
       id="guide18072" />
    <sodipodi:guide
       position="880,900"
       orientation="1,0"
       id="guide18074" />
    <sodipodi:guide
       position="1256,900"
       orientation="1,0"
       id="guide18076" />
    <sodipodi:guide
       position="948,888"
       orientation="1,0"
       id="guide18154" />
    <sodipodi:guide
       position="1192,888"
       orientation="1,0"
       id="guide18422" />
    <sodipodi:guide
       position="880,900"
       orientation="0,-1"
       id="guide18652" />
    <sodipodi:guide
       position="880,812"
       orientation="0,-1"
       id="guide18730" />
    <sodipodi:guide
       position="1188,888"
       orientation="1,0"
       id="guide19302" />
    <sodipodi:guide
       position="570.8306,370.25934"
       orientation="0,-1"
       id="guide10548" />
  </sodipodi:namedview>
  <g
     inkscape:groupmode="layer"
     inkscape:label="Image"
     id="g5432">
    <g
       id="g1521"
       inkscape:export-filename="C:\Users\tutko\OneDrive\Dokumenty\webovska grafika\projekt\logo\250px.png"
       inkscape:export-xdpi="96"
       inkscape:export-ydpi="96"
       style="fill:#a81118;fill-opacity:1"
       transform="matrix(0.0911287,0,0,0.0911287,-17.77395,-15.867379)">
      <g
         id="g1411"
         inkscape:export-filename="C:\Users\tutko\OneDrive\Dokumenty\webovska grafika\projekt\biela.png"
         inkscape:export-xdpi="96"
         inkscape:export-ydpi="96"
         style="fill:#a81118;fill-opacity:1">
        <g
           id="g3294"
           style="fill:#a81118;fill-opacity:1">
          <path
             style="color:#000000;fill:#a81118;fill-opacity:1;-inkscape-stroke:none"
             d="m 904.51367,221.58594 -2.23437,0.97461 c -31.84684,13.86823 -59.71696,35.27531 -86.10352,55.98242 l -0.16211,0.12695 -0.1543,0.13477 c -84.46773,74.09215 -144.43139,171.91712 -187.43359,274.0664 -23.80422,48.48499 -79.47865,74.68399 -132.73633,71.36328 l -0.41992,-0.0254 -0.41992,0.0195 C 440.2201,626.94816 385.85359,605.0998 348.5625,565.04492 l -0.94727,-1.01562 -1.24609,-0.60938 c -3.78385,-1.85208 -9.33449,-7.83556 -14.73437,-15.54492 -5.39989,-7.70936 -10.87623,-16.87501 -16.80274,-24.78125 -5.92651,-7.90624 -12.17722,-15.28279 -21.76367,-17.26563 -4.79323,-0.99141 -10.20588,-0.005 -14.78125,2.78711 -4.57538,2.79185 -8.53024,7.07778 -12.42188,12.92188 l 0.23047,-0.32617 c -13.43388,18.00748 -27.29811,39.27665 -35.52734,62.32422 -8.22923,23.04756 -10.73665,48.263 -0.57227,72.62695 l 1.04297,2.5 2.40039,1.25586 6.32617,3.3125 1.99024,-0.0742 c 52.11653,-1.9212 103.57298,13.98776 153.38086,32.13672 l 0.48633,0.17578 0.5039,0.10937 c 12.87674,2.7697 26.19472,13.12632 33.05274,25.45313 6.75165,12.13561 7.75801,24.86485 -1.28907,36.32031 -37.24157,30.54607 -86.05115,44.68675 -132.9082,61.85156 l -0.84765,0.31055 -0.74805,0.50195 c -2.27334,1.52394 -8.38117,3.42836 -15.58399,4.78321 -7.20281,1.35485 -15.52608,2.45877 -23.2832,4.14648 -7.75711,1.68771 -15.09065,3.58821 -20.80273,8.81836 -2.85605,2.61508 -5.16783,6.47591 -5.64063,10.79688 -0.47279,4.32097 0.70808,8.63407 2.90235,12.85742 l 0.8496,1.63476 1.50977,1.05469 c 51.81864,36.21521 118.42706,27.92299 173.43555,11.90235 83.70596,-12.72686 173.70304,-42.0834 228.10156,-113.51172 31.31501,-0.64264 68.38091,0.68863 96.60547,-22.76563 l 0.0801,-0.0664 0.0781,-0.0684 c 9.58496,-8.42265 14.9026,-15.63227 14.65235,-24.03321 -0.12513,-4.20047 -1.99481,-7.99031 -4.32032,-10.73242 -2.32551,-2.74211 -5.06151,-4.72677 -7.89258,-6.50586 -5.66212,-3.55818 -11.93302,-6.35097 -16.91601,-9.42383 -3.24111,-1.99869 -5.6325,-4.00057 -7.26172,-5.97656 43.34948,-54.3708 59.93839,-122.44244 76.48633,-186.45312 l 0.0898,-0.34571 0.0566,-0.35351 c 12.50586,-78.62543 46.50816,-153.49949 99.29883,-213.08594 l 1.10547,-1.24805 0.47266,-1.59961 c 0.066,-0.22331 3.22757,-4.84 7.88476,-9.29687 4.6572,-4.45687 10.495,-9.44933 15.54492,-14.49414 5.04993,-5.04482 9.88668,-9.54339 11.13086,-17.04102 0.6221,-3.74881 -0.76939,-8.653 -3.80859,-11.58008 -3.0392,-2.92707 -6.77611,-4.3206 -11.26953,-5.31445 z m 1.32813,15.86914 c 0.17581,0.0657 0.46869,0.13403 0.61523,0.19531 -0.7771,1.26729 -2.66777,4.23973 -6.21875,7.78711 -4.43064,4.42615 -10.20535,9.37824 -15.31445,14.26758 -4.56841,4.37189 -8.74566,8.24321 -11.05274,13.89648 -54.27141,61.60103 -89.13402,138.5645 -102.07031,219.35352 -16.97929,65.68527 -33.74543,132.99112 -76.69336,184.51758 l -2.73633,3.28125 1.42774,4.02539 c 2.87117,8.09934 9.32693,13.08991 15.49023,16.89062 6.1633,3.80072 12.54151,6.67591 16.8086,9.35742 2.13354,1.34076 3.68108,2.61854 4.43359,3.50586 0.75251,0.88732 0.75419,1.09461 0.76562,1.47852 0.0228,0.7652 -1.33033,5.05855 -9.49218,12.25195 -23.707,19.62708 -58.01594,18.44026 -90.79883,19.31055 l -3.67188,0.0977 -2.17382,2.95704 c -50.58348,68.8337 -137.93066,98.04811 -221.125,110.63671 l -0.49805,0.0762 -0.48438,0.14062 c -52.63439,15.3906 -113.53272,22.27558 -159.40039,-8.57812 -0.50423,-1.3508 -0.70379,-2.34978 -0.66406,-2.71289 0.0549,-0.50178 0.0533,-0.62894 0.85742,-1.36524 1.6083,-1.4726 6.99127,-3.72752 13.86328,-5.22265 6.87202,-1.49514 15.0918,-2.60227 22.86524,-4.06446 7.25451,-1.36457 14.05667,-2.8631 19.88672,-6.36328 46.30471,-16.94299 97.20472,-31.2787 137.62695,-64.74414 l 0.55664,-0.45898 0.45899,-0.5586 c 13.57976,-16.54909 12.18725,-37.49233 3.18359,-53.67578 -8.85767,-15.92102 -24.52743,-28.49818 -42.14453,-32.58398 -49.57465,-18.05954 -102.11,-34.51811 -156.79102,-32.97852 l -0.35937,-0.1875 c -7.32196,-19.45278 -5.41209,-39.48261 1.70312,-59.41016 7.40721,-20.74533 20.43182,-40.98327 33.42383,-58.39843 l 0.12109,-0.16211 0.11133,-0.16602 c 3.11922,-4.68415 5.86667,-7.28245 7.75,-8.43164 1.88334,-1.14919 2.68615,-1.15915 3.92774,-0.90234 2.48316,0.51361 7.58189,4.61263 12.79882,11.57226 5.21694,6.95964 10.67819,16.0482 16.52149,24.39063 5.4627,7.79903 11.14482,15.06181 18.86523,19.42383 40.27968,42.86965 98.34986,66.13022 157.02539,63.31445 58.63875,3.47897 119.85646,-25.10111 146.67579,-79.78711 l 0.0957,-0.19336 0.084,-0.20117 c 42.3811,-100.7755 101.30498,-196.66673 183.51563,-268.83008 25.50307,-20.01099 51.66986,-39.8504 80.23047,-52.75195 z"
             id="path5488" />
          <path
             style="color:#000000;fill:#a81118;fill-opacity:1;-inkscape-stroke:none"
             d="m 1026,400 c 4.9465,21.16394 9.3931,44.3968 12,66 3.5934,30.57963 4,47 4,47 0,0 -52.02645,-1.86991 -73.94341,-4.77735 C 946.92842,505.41984 914,496 914,496 v 88 c 0,0 34.88778,-10.21029 54.32549,-12.86067 C 991.09979,568.034 1042,567 1042,567 v 80 c 0,0 -64.33549,1.19977 -94.11719,-2.00586 C 924.22787,642.44798 880,632 880,632 v 88 c 0,0 42.32658,-12.17614 68.45698,-14.91192 C 975.00437,702.30862 1042,702 1042,702 v 117 c -23.0355,9.20327 -47.19111,40.93601 -51.13281,52.37109 0,0 -12.35898,-15.47217 -35.74024,-21.61914 -39.98098,-8.37555 -69.7645,16.43719 -85.67968,48.74805 l 20.01953,-0.15625 c 0,0 17.86809,-33.12564 50.83984,-32.97852 15.63788,0.34626 24.9391,5.5686 34.625,15.53516 9.88013,10.16642 9.10023,15.41984 17.10156,15.68555 8.5881,-0.0962 10.7322,-12.70703 22.7383,-30.05274 13.3758,-19.3247 27.1416,-34.89794 53.5644,-35.77929 19.838,0.23431 35.8978,13.14975 48.6133,29.70898 11.8531,15.45944 16.2313,36.46802 26.7227,36.74023 8.572,-0.34146 10.4402,-10.44773 19.8593,-18.67187 8.9301,-7.79712 21.6374,-13.41517 34.3965,-13.28906 20.5201,0.40738 37.3787,16.355 48.8379,33.77148 l 20.8887,-0.88281 c -13.9738,-23.96863 -39.4647,-50.58266 -68.7891,-50.27344 -22.5529,0.26005 -39.7364,8.81597 -53.6836,22.85742 0,0 -8.1784,-15.8588 -20.0097,-29.05859 C 1113.477,828.60854 1097,819 1097,819 V 702 c 0,0 64.3895,-0.60266 91.1916,2.4082 C 1215.6711,707.49517 1256,720 1256,720 v -88 c 0,0 -42.0107,9.3793 -67.6828,12.10899 C 1160.5174,647.06488 1097,647 1097,647 v -80 c 0,0 51.4484,1.34076 69.1805,3.17969 C 1191.3593,572.79091 1224,584 1224,584 v -88 c 0,0 -37.5528,10.1204 -57.9844,13.08398 C 1144.5861,512.19231 1097,513 1097,513 c 0,0 0.7321,-27.92294 3.3945,-47.2832 2.6781,-19.47506 9.6621,-66.25391 9.6621,-66.25391 0,0 -18.5965,2.83561 -40.2382,2.7168 C 1047.7347,402.05845 1026,400 1026,400 Z"
             id="path4403" />
          <g
             aria-label="IDES"
             id="text11158"
             style="font-size:306.667px;font-family:'Heisei Kaku Gothic Std';-inkscape-font-specification:'Heisei Kaku Gothic Std';letter-spacing:3.05px;fill:#a81118;fill-opacity:1">
            <path
               style="color:#000000;-inkscape-font-specification:'Heisei Kaku Gothic Std';fill:#a81118;fill-opacity:1;-inkscape-stroke:none"
               d="m 581.11648,956.31463 v 206.69357 h 34.96004 V 956.31463 Z"
               id="path159" />
            <path
               style="color:#000000;-inkscape-font-specification:'Heisei Kaku Gothic Std';fill:#a81118;fill-opacity:1;-inkscape-stroke:none"
               d="m 667.2732,1162.3948 c 14.10668,1.84 31.5867,2.76 54.58673,2.76 43.24004,0 78.20008,-10.4266 99.97344,-30.36 20.24002,-19.0133 32.5067,-46.3067 32.5067,-80.3467 0,-32.8134 -11.96001,-57.34676 -32.20004,-74.21345 -20.24002,-17.17335 -49.06672,-25.76003 -90.77343,-25.76003 -23.61335,0 -46.00004,1.84001 -64.0934,4.60001 z m 34.96004,-177.86681 c 6.74667,-1.53334 16.86668,-2.76 31.28003,-2.76 54.58673,0 84.02676,26.68001 83.72009,74.21341 0,50.9067 -31.28003,81.8801 -88.93343,81.5734 -9.81334,0 -19.62668,0 -26.06669,-1.2266 z"
               id="path161" />
            <path
               style="color:#000000;-inkscape-font-specification:'Heisei Kaku Gothic Std';fill:#a81118;fill-opacity:1;-inkscape-stroke:none"
               d="M 1045.6831,1041.8747 H 931.60294 V 983.91466 H 1052.1231 V 956.31463 H 896.6429 v 206.69357 h 161.3068 v -27.6001 H 931.60294 v -65.6267 h 114.08016 z"
               id="path163" />
            <path
               style="color:#000000;-inkscape-font-specification:'Heisei Kaku Gothic Std';fill:#a81118;fill-opacity:1;-inkscape-stroke:none"
               d="m 1094.4264,1149.2082 c 17.1733,10.7333 48.1467,18.7067 76.0534,18.7067 70.2267,0 92.0001,-34.6534 92.0001,-61.9468 0,-39.56 -25.7601,-54.28 -73.2934,-63.1734 -38.3334,-7.36 -53.6668,-17.48 -53.6668,-34.6534 0,-13.18663 11.9601,-30.05332 47.8401,-30.05332 28.8267,0 49.3734,8.89335 57.96,13.18668 l 10.7334,-26.68003 c -15.0267,-7.36 -36.1867,-13.18668 -68.0801,-13.18668 -50.2934,0 -84.3334,25.1467 -84.3334,59.18675 0,33.7334 22.08,49.68 75.1334,61.3334 40.7867,7.6667 51.8267,18.0933 51.8267,35.5734 0,19.9333 -18.7067,33.12 -51.52,33.12 -28.5201,0 -52.4401,-8.5867 -70.5334,-19.6267 z"
               id="path165" />
          </g>
          <g
             aria-label="V"
             id="text30270"
             style="font-size:386.667px;font-family:'Heisei Kaku Gothic Std';-inkscape-font-specification:'Heisei Kaku Gothic Std';fill:#a81118;fill-opacity:1">
            <path
               style="color:#000000;-inkscape-font-specification:'Heisei Kaku Gothic Std';fill:#a81118;fill-opacity:1;-inkscape-stroke:none"
               d="M 446.54131,1162.7083 556.35473,902.0947 h -46.7867 l -51.04005,126.8268 c -13.92001,34.0267 -26.29335,64.96 -35.18669,93.9601 h -0.77334 c -8.50667,-30.1601 -18.56001,-58.3868 -32.09336,-95.1201 L 344.07455,902.0947 h -47.9467 l 99.76008,260.6136 z"
               id="path186" />
          </g>
          <g
             id="rect40785"
             style="fill:#a81118;fill-opacity:1">
            <path
               style="color:#000000;fill:#a81118;fill-opacity:1;stroke-width:0;-inkscape-stroke:none"
               d="m 230,902 h 114 v 36 H 230 Z"
               id="path343" />
            <path
               style="color:#000000;fill:#a81118;fill-opacity:1;-inkscape-stroke:none"
               d="m 230,902 h 114 v 36 H 230 Z"
               id="path345" />
          </g>
          <g
             id="rect40924"
             style="fill:#a81118;fill-opacity:1">
            <path
               style="color:#000000;fill:#a81118;fill-opacity:1;stroke-width:0;-inkscape-stroke:none"
               d="m 510,902 h 760 v 36 H 510 Z"
               id="path351" />
            <path
               style="color:#000000;fill:#a81118;fill-opacity:1;-inkscape-stroke:none"
               d="m 510,902 h 760 v 36 H 510 Z"
               id="path353" />
          </g>
        </g>
      </g>
      <ellipse
         style="fill:#a81118;fill-opacity:1;stroke:none;stroke-width:0.840362"
         id="path3337"
         cx="598.5199"
         cy="859.75739"
         rx="24.6"
         ry="25.837177" />
    </g>
  </g>
</svg>
