<?xml version="1.0" encoding="UTF-8" standalone="no"?>
<!-- Created with Inkscape (http://www.inkscape.org/) -->

<svg
   version="1.1"
   id="svg5426"
   width="50"
   height="50"
   viewBox="0 0 50 50"
   sodipodi:docname="logo_vtacik.svg"
   inkscape:version="1.1 (c68e22c387, 2021-05-23)"
   inkscape:export-filename="C:\Users\tutko\OneDrive\Dokumenty\webovska grafika\projekt\vtacik.png"
   inkscape:export-xdpi="96"
   inkscape:export-ydpi="96"
   xmlns:inkscape="http://www.inkscape.org/namespaces/inkscape"
   xmlns:sodipodi="http://sodipodi.sourceforge.net/DTD/sodipodi-0.dtd"
   xmlns="http://www.w3.org/2000/svg"
   xmlns:svg="http://www.w3.org/2000/svg">
  <defs
     id="defs5430">
    <inkscape:path-effect
       effect="spiro"
       id="path-effect4297"
       is_visible="true"
       lpeversion="1" />
  </defs>
  <sodipodi:namedview
     id="namedview5428"
     pagecolor="#ffffff"
     bordercolor="#666666"
     borderopacity="1.0"
     inkscape:pageshadow="2"
     inkscape:pageopacity="0.0"
     inkscape:pagecheckerboard="0"
     showgrid="false"
     inkscape:zoom="5.5778369"
     inkscape:cx="49.750468"
     inkscape:cy="67.140722"
     inkscape:window-width="1920"
     inkscape:window-height="1001"
     inkscape:window-x="-9"
     inkscape:window-y="-9"
     inkscape:window-maximized="1"
     inkscape:current-layer="g5432"
     showguides="false"
     inkscape:snap-global="true"
     inkscape:snap-bbox="true"
     inkscape:guide-bbox="true"
     width="100px">
    <inkscape:grid
       type="xygrid"
       id="grid115"
       empspacing="2"
       empcolor="#1e4fad"
       empopacity="0.16862745"
       dotted="false" />
    <sodipodi:guide
       position="1024,1132"
       orientation="0,-1"
       id="guide3015" />
    <sodipodi:guide
       position="1042,714"
       orientation="1,0"
       id="guide3017" />
    <sodipodi:guide
       position="1097,1019"
       orientation="1,0"
       id="guide3021" />
    <sodipodi:guide
       position="1097,1019"
       orientation="0,-1"
       id="guide3156" />
    <sodipodi:guide
       position="1059,965"
       orientation="0,-1"
       id="guide3576" />
    <sodipodi:guide
       position="1063,885"
       orientation="0,-1"
       id="guide3578" />
    <sodipodi:guide
       position="1064,830"
       orientation="0,-1"
       id="guide3618" />
    <sodipodi:guide
       position="1076,712"
       orientation="0,-1"
       id="guide3867" />
    <sodipodi:guide
       position="914,1036"
       orientation="1,0"
       id="guide17152" />
    <sodipodi:guide
       position="968,1024"
       orientation="1,0"
       id="guide17458" />
    <sodipodi:guide
       position="1064,1066"
       orientation="0,-1"
       id="guide17840" />
    <sodipodi:guide
       position="1166,1024"
       orientation="1,0"
       id="guide17880" />
    <sodipodi:guide
       position="1224,1036"
       orientation="1,0"
       id="guide18072" />
    <sodipodi:guide
       position="880,900"
       orientation="1,0"
       id="guide18074" />
    <sodipodi:guide
       position="1256,900"
       orientation="1,0"
       id="guide18076" />
    <sodipodi:guide
       position="948,888"
       orientation="1,0"
       id="guide18154" />
    <sodipodi:guide
       position="1192,888"
       orientation="1,0"
       id="guide18422" />
    <sodipodi:guide
       position="880,900"
       orientation="0,-1"
       id="guide18652" />
    <sodipodi:guide
       position="880,812"
       orientation="0,-1"
       id="guide18730" />
    <sodipodi:guide
       position="1188,888"
       orientation="1,0"
       id="guide19302" />
  </sodipodi:namedview>
  <g
     inkscape:groupmode="layer"
     inkscape:label="Image"
     id="g5432">
    <path
       style="fill:none;stroke:#f4d412;stroke-width:1.02233;stroke-linecap:butt;stroke-linejoin:miter;stroke-miterlimit:4;stroke-dasharray:none;stroke-opacity:1"
       d="m 1.8922397,32.520268 c -0.4671474,-0.77597 -0.4559863,-1.957664 -0.380535,-2.75833 0.1791405,-1.322177 0.653401,-2.549162 1.2166949,-3.631065 0.3961903,-0.713979 0.8998714,-1.423909 1.3273275,-2.06562 0.106044,-0.159255 0.3592124,-0.472271 0.3592124,-0.472271 0.2693207,-0.28405 0.5141729,-0.685678 0.861778,-0.863561 0.6544142,-0.217038 1.0978141,0.76562 1.3960643,1.217599 1.3674222,1.974464 3.2977351,3.946426 5.2653852,5.213669 0.51227,0.3441 1.963497,1.037574 2.941696,1.351147 0.639055,0.200546 1.627966,0.332078 1.627966,0.332078 1.085697,0.149613 2.261996,0.224804 3.256111,0.189927 0.581443,-0.02281 1.653177,-0.04182 2.30836,-0.168324 0.611054,-0.117989 1.464035,-0.367267 2.037785,-0.610734 0.773678,-0.328291 1.566474,-0.758176 2.224352,-1.285321 0.789833,-0.632872 1.522428,-1.523122 2.003778,-2.212505 0.777612,-1.185068 1.183422,-2.430729 1.768585,-3.72302 0.356702,-0.794438 0.815917,-1.737095 1.221729,-2.506968 0.719341,-1.364671 1.650123,-2.996481 2.340894,-3.989572 0.419315,-0.602834 1.537237,-2.403692 2.03549,-3.023952 0.913425,-1.137101 1.852204,-2.424714 2.89225,-3.5245406 1.078447,-1.1404369 2.270318,-2.3495666 3.53671,-3.3505406 1.395691,-1.1031802 3.874383,-2.6802293 4.534935,-3.0360699 0.610339,-0.3287863 1.447733,-0.1526007 1.242777,0.4103356 -2.070806,2.24052 -3.574427,3.9084263 -5.306336,6.6215385 -0.303666,0.475576 -1.227317,2.241471 -1.227317,2.241471 -1.257956,2.437462 -1.952781,4.69409 -2.48161,7.432134 -0.354519,1.821428 -0.858035,3.452877 -1.201876,4.771084 -0.438665,1.681731 -0.907625,3.034602 -1.672463,4.935686 -0.125871,0.489349 -0.73605,1.499834 -1.230226,2.350105 -0.482647,0.830448 -1.034009,1.498358 -1.203609,1.707448 -0.350907,0.432608 -0.327003,0.452304 -0.205793,0.844078 0.243032,0.503155 0.856019,0.85358 1.542815,0.906485 0.691718,0.05328 0.875106,0.092 0.921109,0.463467 0.101354,0.818274 -0.368764,1.453027 -1.027024,1.967518 -0.655962,0.512687 -1.627781,0.826427 -2.324674,0.981965 -0.477645,0.106596 -1.008542,0.136335 -1.514745,0.186721 -0.67069,0.06676 -2.388864,0.08037 -2.388864,0.08037 0,0 -0.329558,0.481193 -0.461864,0.623057 -0.43598,0.467495 -1.453717,1.634309 -2.218574,2.241969 -0.39702,0.315417 -0.95623,0.729462 -1.575588,1.122412 -0.963944,0.611559 -2.455634,1.342034 -2.949576,1.581813 -1.692128,0.821289 -3.746073,1.27174 -4.887322,1.599196 -0.914223,0.262313 -2.577059,0.499486 -3.213645,0.624273 -0.96462,0.189089 -2.087347,0.581361 -3.142561,0.737211 C 8.6486225,48.259598 6.8944545,48.22232 6.5547097,48.188898 5.9829251,48.132644 4.7175622,47.913 3.5945646,47.473699 2.5251832,47.055371 1.599608,46.479231 1.5661812,45.973043 c -0.020878,-0.316108 0.374029,-0.569655 1.2687339,-0.736376 0.3621371,-0.05578 2.664501,-0.671745 3.5585034,-0.980392 1.3744475,-0.474525 2.6704226,-0.968621 3.9603075,-1.503704 1.439013,-0.596945 2.915315,-1.280459 4.031928,-2.058802 0.688366,-0.479839 1.028761,-0.783786 1.286823,-1.575865 0.280183,-0.85997 -0.03591,-1.953621 -0.599418,-2.649127 -0.398989,-0.492454 -0.72038,-0.78858 -1.262778,-1.123533 -0.687722,-0.344622 -1.363193,-0.526801 -2.09142,-0.795497 C 10.622964,34.112243 9.3571723,33.749363 8.3665547,33.475983 7.4810341,33.264244 6.5130875,33.018949 5.7014019,32.904503 4.997171,32.810721 4.5264627,32.705537 3.5810205,32.69057 2.736783,32.677194 2.2804333,32.849921 1.8922397,32.520266 Z"
       sodipodi:nodetypes="cccccccccccsssccssssssccccscsscssssscssscsscssscsssssccccsc"
       id="path5488"
       inkscape:export-filename="C:\Users\tutko\OneDrive\Dokumenty\webovska grafika\projekt\logo\50px.png"
       inkscape:export-xdpi="96"
       inkscape:export-ydpi="96" />
  </g>
</svg>
